<svg width="21" height="21" viewBox="0 0 21 21" fill="none" xmlns="http://www.w3.org/2000/svg">
<path fill-rule="evenodd" clip-rule="evenodd" d="M9.7659 1.52734C5.21587 1.52734 1.52734 5.21587 1.52734 9.7659C1.52734 14.3159 5.21587 18.0045 9.7659 18.0045C14.3159 18.0045 18.0045 14.3159 18.0045 9.7659C18.0045 5.21587 14.3159 1.52734 9.7659 1.52734ZM0.0273438 9.7659C0.0273438 4.38744 4.38744 0.0273438 9.7659 0.0273438C15.1444 0.0273438 19.5045 4.38744 19.5045 9.7659C19.5045 15.1444 15.1444 19.5045 9.7659 19.5045C4.38744 19.5045 0.0273438 15.1444 0.0273438 9.7659Z" fill="#819AA9"/>
<path fill-rule="evenodd" clip-rule="evenodd" d="M15.4885 15.9547C15.781 15.6615 16.2559 15.6608 16.5492 15.9534L20.0732 19.4682C20.3665 19.7607 20.3671 20.2356 20.0746 20.5289C19.7821 20.8222 19.3072 20.8228 19.0139 20.5303L15.4899 17.0154C15.1966 16.7229 15.196 16.248 15.4885 15.9547Z" fill="#819AA9"/>
</svg>
