<svg width="56" height="56" viewBox="0 0 56 56" fill="none" xmlns="http://www.w3.org/2000/svg">
<rect width="56" height="56" fill="#F0DB4F"/>
<path d="M49.7448 41.5983C49.3642 39.2257 47.817 37.2337 43.2349 35.3751C41.6432 34.6435 39.8687 34.1196 39.3398 32.9135C39.152 32.2116 39.1273 31.8162 39.2459 31.3911C39.587 30.012 41.233 29.5819 42.5379 29.9774C43.3782 30.2591 44.174 30.9067 44.6535 31.9397C46.8976 30.4865 46.8927 30.4964 48.4596 29.498C47.8862 28.6082 47.5797 28.1979 47.2041 27.8173C45.8547 26.3097 44.0159 25.5337 41.0748 25.593C40.5657 25.6573 40.0517 25.7264 39.5425 25.7907C38.0745 26.1614 36.6756 26.9326 35.855 27.9656C33.3934 30.7584 34.0953 35.647 37.0908 37.6588C40.0417 39.8733 44.3767 40.3774 44.9303 42.4485C45.4691 44.9843 43.0669 45.8048 40.6794 45.5132C38.9197 45.1474 37.941 44.2527 36.8832 42.6265C34.9357 43.7535 34.9357 43.7535 32.9338 44.9052C33.4083 45.9432 33.9075 46.4128 34.7034 47.3124C38.4699 51.1333 47.8961 50.9455 49.5866 45.1622C49.6558 44.9645 50.1106 43.6397 49.7448 41.5983ZM30.2695 25.8994H25.4056C25.4056 30.1009 25.3859 34.2728 25.3859 38.4743C25.3859 41.1485 25.5243 43.6002 25.0893 44.3515C24.3775 45.8294 22.5338 45.6466 21.6935 45.3598C20.8384 44.9397 20.4034 44.3416 19.8992 43.4964C19.7608 43.2542 19.657 43.0664 19.6223 43.0515C18.3026 43.8572 16.9877 44.6678 15.668 45.4736C16.3254 46.823 17.2942 47.9945 18.5349 48.7557C20.3885 49.8678 22.8798 50.2089 25.4847 49.6108C27.1802 49.1165 28.6432 48.0934 29.4094 46.5363C30.5166 44.4949 30.2794 42.0234 30.2695 39.2899C30.2942 34.8314 30.2695 30.3728 30.2695 25.8994Z" fill="#323330"/>
</svg>
