<svg width="56" height="56" viewBox="0 0 56 56" fill="none" xmlns="http://www.w3.org/2000/svg">
<rect width="56" height="56" fill="#61DAFB"/>
<path d="M52 28.0048C52 24.8805 48.0179 21.9197 41.9128 20.0835C43.3216 13.9696 42.6955 9.10529 39.9364 7.54795C39.3004 7.18265 38.5569 7.00961 37.7448 7.00961V9.15335C38.1949 9.15335 38.5569 9.23987 38.8602 9.4033C40.1908 10.1531 40.768 13.0082 40.318 16.6805C40.2104 17.5841 40.0342 18.5358 39.819 19.5068C37.9013 19.0453 35.8076 18.6896 33.6062 18.4589C32.2854 16.6805 30.9156 15.0655 29.5361 13.6523C32.7256 10.7395 35.7195 9.14374 37.7546 9.14374V7C35.064 7 31.5418 8.88418 27.9804 12.1527C24.4191 8.90341 20.8969 7.03845 18.2063 7.03845V9.18219C20.2316 9.18219 23.2352 10.7684 26.4248 13.6619C25.055 15.0751 23.6853 16.6805 22.384 18.4589C20.1729 18.6896 18.0791 19.0453 16.1614 19.5164C15.9364 18.555 15.7701 17.6226 15.6527 16.7285C15.1928 13.0563 15.7603 10.2012 17.0811 9.44175C17.3746 9.26871 17.7562 9.19181 18.2063 9.19181V7.04807C17.3844 7.04807 16.6408 7.2211 15.9951 7.5864C13.2458 9.14374 12.6294 13.9984 14.0481 20.0932C7.96249 21.9389 4 24.8901 4 28.0048C4 31.1291 7.98206 34.0899 14.0872 35.9261C12.6784 42.0401 13.3045 46.9043 16.0636 48.4617C16.6996 48.827 17.4431 49 18.265 49C20.9556 49 24.4778 47.1158 28.0391 43.8473C31.6005 47.0966 35.1227 48.9615 37.8133 48.9615C38.6351 48.9615 39.3787 48.7885 40.0245 48.4232C42.7738 46.8659 43.3901 42.0112 41.9715 35.9165C48.0375 34.0803 52 31.1195 52 28.0048ZM39.2613 21.5928C38.8993 22.8329 38.4492 24.1115 37.9405 25.39C37.5393 24.621 37.1186 23.8519 36.6588 23.0829C36.2087 22.3138 35.7293 21.564 35.2499 20.8334C36.6392 21.0352 37.9796 21.2852 39.2613 21.5928ZM34.7803 31.8309C34.0171 33.1286 33.2344 34.3591 32.4223 35.5031C30.9645 35.6281 29.4872 35.6954 28 35.6954C26.5226 35.6954 25.0453 35.6281 23.5972 35.5127C22.7852 34.3687 21.9927 33.1479 21.2295 31.8597C20.4859 30.6004 19.8108 29.3218 19.1945 28.0336C19.8011 26.7455 20.4859 25.4573 21.2197 24.198C21.9829 22.9002 22.7656 21.6697 23.5777 20.5257C25.0355 20.4008 26.5128 20.3335 28 20.3335C29.4774 20.3335 30.9548 20.4008 32.4028 20.5161C33.2148 21.6601 34.0073 22.881 34.7705 24.1691C35.5141 25.4285 36.1892 26.707 36.8055 27.9952C36.1892 29.2834 35.5141 30.5715 34.7803 31.8309ZM37.9405 30.5811C38.4688 31.8693 38.9189 33.1575 39.2907 34.4072C38.009 34.7148 36.6588 34.9744 35.2597 35.1762C35.7391 34.436 36.2185 33.6766 36.6686 32.8979C37.1186 32.1289 37.5393 31.3502 37.9405 30.5811ZM28.0196 40.8384C27.1097 39.9155 26.1998 38.8869 25.2996 37.7622C26.1802 37.8006 27.0803 37.8295 27.9902 37.8295C28.9099 37.8295 29.8198 37.8103 30.7102 37.7622C29.8296 38.8869 28.9197 39.9155 28.0196 40.8384ZM20.7403 35.1762C19.351 34.9744 18.0106 34.7244 16.7289 34.4168C17.0909 33.1767 17.541 31.8981 18.0497 30.6196C18.4509 31.3886 18.8716 32.1577 19.3314 32.9268C19.7913 33.6958 20.2609 34.4456 20.7403 35.1762ZM27.9707 15.1712C28.8806 16.0941 29.7905 17.1227 30.6906 18.2474C29.81 18.209 28.9099 18.1801 28 18.1801C27.0803 18.1801 26.1704 18.1994 25.2801 18.2474C26.1606 17.1227 27.0705 16.0941 27.9707 15.1712ZM20.7305 20.8334C20.2511 21.5736 19.7717 22.333 19.3216 23.1117C18.8716 23.8808 18.4509 24.6498 18.0497 25.4189C17.5214 24.1307 17.0713 22.8425 16.6996 21.5928C17.9812 21.2948 19.3314 21.0352 20.7305 20.8334ZM11.8761 32.8691C8.41256 31.4175 6.17203 29.5141 6.17203 28.0048C6.17203 26.4955 8.41256 24.5825 11.8761 23.1405C12.7175 22.7848 13.6372 22.4676 14.5862 22.1696C15.1439 24.0538 15.8777 26.0149 16.7876 28.024C15.8875 30.0236 15.1635 31.975 14.6156 33.8496C13.647 33.5516 12.7273 33.2248 11.8761 32.8691ZM17.1398 46.6063C15.8092 45.8565 15.232 43.0014 15.682 39.3291C15.7896 38.4255 15.9658 37.4738 16.181 36.5029C18.0987 36.9643 20.1924 37.32 22.3938 37.5507C23.7146 39.3291 25.0844 40.9441 26.4639 42.3573C23.2744 45.2701 20.2805 46.8659 18.2454 46.8659C17.8051 46.8563 17.4333 46.7697 17.1398 46.6063ZM40.3473 39.2811C40.8072 42.9533 40.2397 45.8084 38.9189 46.5679C38.6254 46.7409 38.2438 46.8178 37.7937 46.8178C35.7684 46.8178 32.7648 45.2316 29.5752 42.3381C30.945 40.9249 32.3147 39.3195 33.616 37.5411C35.8272 37.3104 37.9209 36.9547 39.8386 36.4836C40.0636 37.4546 40.2397 38.387 40.3473 39.2811ZM44.1141 32.8691C43.2727 33.2248 42.353 33.542 41.404 33.84C40.8463 31.9558 40.1125 29.9947 39.2026 27.9856C40.1027 25.986 40.8267 24.0346 41.3746 22.16C42.3433 22.458 43.2629 22.7848 44.1239 23.1405C47.5874 24.5921 49.828 26.4955 49.828 28.0048C49.8182 29.5141 47.5777 31.4271 44.1141 32.8691Z" fill="white"/>
<path d="M28 32C30.2091 32 32 30.2091 32 28C32 25.7909 30.2091 24 28 24C25.7909 24 24 25.7909 24 28C24 30.2091 25.7909 32 28 32Z" fill="white"/>
</svg>
